<svg xmlns="http://www.w3.org/2000/svg" width="800" height="200" viewBox="0 0 800 200"><defs><linearGradient id="skyGradient" x1="0%" x2="0%" y1="0%" y2="100%"><stop offset="0%" style="stop-color:#312e81;stop-opacity:1"/><stop offset="40%" style="stop-color:#be185d;stop-opacity:1"/><stop offset="70%" style="stop-color:#f97316;stop-opacity:1"/><stop offset="100%" style="stop-color:#fbbf24;stop-opacity:1"/></linearGradient><filter id="sunGlow" width="200%" height="200%" x="-50%" y="-50%"><feGaussianBlur result="blur" stdDeviation="15"/><feComposite in="SourceGraphic" in2="blur" operator="over"/></filter><linearGradient id="sunInnerGradient" x1="0%" x2="0%" y1="0%" y2="100%"><stop offset="0%" style="stop-color:#fff;stop-opacity:1"/><stop offset="100%" style="stop-color:#fef3c7;stop-opacity:1"/></linearGradient><linearGradient id="textGradient" x1="0%" x2="0%" y1="0%" y2="100%"><stop offset="0%" style="stop-color:#fff;stop-opacity:1"/><stop offset="100%" style="stop-color:#fed7aa;stop-opacity:1"/></linearGradient></defs><rect width="800" height="200" fill="url(#skyGradient)"/><circle cx="400" cy="120" r="50" fill="#fcd34d" filter="url(#sunGlow)" opacity=".6"/><circle cx="400" cy="120" r="30" fill="url(#sunInnerGradient)" opacity=".95"/><g stroke="#fff" stroke-width=".5" opacity=".15"><line x1="0" x2="800" y1="120" y2="120"/><line x1="0" x2="800" y1="140" y2="140"/><line x1="0" x2="800" y1="155" y2="155"/><line x1="0" x2="800" y1="165" y2="165"/><line x1="0" x2="800" y1="172" y2="172"/></g><path fill="#701a75" d="M0,200 L0,150 C150,160 250,130 400,150 C550,170 650,150 800,160 L800,200 Z" opacity=".6"/><path fill="#4c1d95" d="M-10,200 L-10,180 C100,195 300,165 400,175 C500,185 700,165 810,185 L810,200 Z" opacity=".9"/><text x="50%" y="55%" fill="url(#textGradient)" dominant-baseline="middle" font-family="'Segoe UI', Roboto, Helvetica, Arial, sans-serif" font-size="70" font-weight="900" letter-spacing="12" text-anchor="middle" style="text-shadow:0 4px 10px rgba(0,0,0,.4)">HORIZON</text><text x="50%" y="85%" fill="#fbbf24" dominant-baseline="middle" font-family="'Segoe UI', Roboto, Helvetica, Arial, sans-serif" font-size="13" font-weight="bold" letter-spacing="4" opacity=".95" text-anchor="middle">INTELLIGENCE AGGREGATOR</text></svg>